
<svg version="1.0" xmlns="http://www.w3.org/2000/svg"
 width="300.000000pt" height="300.000000pt" viewBox="0 0 300.000000 300.000000"
 preserveAspectRatio="xMidYMid meet">

<g transform="translate(0.000000,300.000000) scale(0.100000,-0.100000)"
fill="#f1f281" stroke="none">
<path d="M1360 2937 c-104 -62 -105 -62 -105 -101 l0 -38 417 -246 c229 -135
415 -249 412 -253 -5 -8 -230 -139 -239 -139 -3 0 -203 115 -445 255 -293 171
-448 255 -467 255 -18 0 -137 -64 -353 -191 -179 -105 -333 -199 -342 -208
-16 -15 -17 -69 -19 -691 l-1 -675 43 -2 c41 -3 71 13 414 211 l370 214 5 120
5 121 70 -40 c39 -23 257 -149 486 -280 461 -265 453 -262 538 -213 86 50 81
33 81 258 l0 201 122 75 c67 41 126 77 130 78 4 2 8 -158 8 -356 l0 -359 -209
-126 c-115 -70 -212 -127 -215 -127 -4 0 -207 115 -451 255 -372 213 -451 255
-483 255 -33 0 -92 -32 -388 -211 -192 -117 -357 -219 -366 -227 -29 -24 -23
-77 9 -100 16 -11 270 -159 565 -331 354 -205 547 -311 565 -311 16 0 71 25
128 58 94 55 100 60 103 93 2 24 -3 40 -15 51 -10 8 -121 76 -248 151 -126 74
-310 182 -409 240 l-178 106 53 34 c30 18 87 53 126 77 l73 42 443 -261 c379
-223 449 -261 483 -261 32 0 95 33 369 193 l330 192 0 690 0 690 -32 3 c-26 3
-86 -27 -310 -154 -153 -86 -318 -179 -368 -207 -133 -74 -125 -61 -125 -200
0 -95 -3 -118 -13 -114 -8 3 -232 132 -498 286 -308 179 -494 281 -511 281
-15 0 -54 -16 -86 -35 -73 -42 -72 -39 -72 -274 l0 -176 -128 -72 -127 -71 -3
336 c-1 185 0 342 2 348 2 6 100 66 216 134 166 96 216 121 229 113 9 -5 207
-118 442 -251 328 -187 433 -242 460 -242 26 0 116 48 401 213 202 117 374
219 383 227 11 9 15 25 13 49 l-3 35 -560 333 c-403 240 -568 333 -590 333
-19 0 -69 -23 -135 -63z m728 -330 c416 -246 520 -313 510 -322 -25 -23 -747
-437 -755 -432 -4 2 -211 120 -460 261 l-451 256 -229 -132 c-125 -72 -231
-136 -235 -142 -4 -6 -8 -188 -8 -403 0 -308 3 -393 13 -392 6 0 84 42 172 92
l160 92 3 206 2 206 49 27 c27 14 54 26 61 26 7 0 241 -133 521 -295 280 -163
515 -298 524 -301 12 -5 15 16 17 142 l3 148 325 184 c179 101 349 196 378
213 l52 29 0 -654 0 -654 -331 -192 c-182 -105 -336 -189 -344 -186 -12 4
-300 173 -747 438 l-168 99 -170 -102 c-93 -56 -170 -105 -170 -109 0 -4 197
-123 438 -265 240 -142 443 -263 450 -270 11 -10 -5 -22 -80 -65 -51 -29 -97
-53 -103 -53 -9 0 -324 182 -933 537 -95 56 -173 105 -174 111 -1 9 678 428
714 440 10 4 189 -93 481 -260 l464 -266 229 139 229 139 3 416 c1 229 -1 417
-4 417 -4 0 -80 -46 -170 -101 l-164 -101 0 -204 0 -204 -41 -25 c-22 -14 -51
-31 -64 -37 -26 -12 31 -43 -727 394 -180 103 -332 188 -337 188 -7 0 -11 -48
-11 -137 l0 -138 -28 -16 c-15 -8 -181 -104 -368 -212 -188 -108 -346 -197
-350 -197 -5 0 -7 291 -4 647 l5 647 334 198 335 197 30 -18 c17 -11 216 -126
441 -257 226 -130 417 -241 425 -246 11 -7 60 16 179 86 90 52 167 98 172 103
4 4 -186 123 -424 262 -238 140 -440 260 -450 267 -17 11 -7 19 85 73 l103 60
35 -21 c19 -11 270 -160 558 -331z"/>
</g>
</svg>
