<?xml version="1.0" standalone="no"?>
<!DOCTYPE svg PUBLIC "-//W3C//DTD SVG 20010904//EN"
 "http://www.w3.org/TR/2001/REC-SVG-20010904/DTD/svg10.dtd">
<svg version="1.0" xmlns="http://www.w3.org/2000/svg"
 width="1024.000000pt" height="185.000000pt" viewBox="0 0 1024.000000 185.000000"
 preserveAspectRatio="xMidYMid meet">

<g transform="translate(0.000000,185.000000) scale(0.100000,-0.100000)"
fill="#000000" stroke="none">
<path d="M5532 977 l3 -403 25 -37 c40 -59 84 -77 184 -77 l86 0 0 85 0 85
-70 0 -70 0 0 375 0 375 -80 0 -81 0 3 -403z"/>
<path d="M6236 1140 c-34 -11 -82 -54 -102 -92 -11 -21 -14 -78 -14 -251 0
-216 1 -225 23 -258 12 -18 38 -44 56 -56 33 -22 41 -23 261 -23 220 0 228 1
261 23 18 12 44 38 56 56 22 33 23 41 23 259 0 213 -1 226 -22 264 -12 21 -38
49 -58 61 -33 21 -48 22 -245 24 -115 1 -223 -2 -239 -7z m404 -340 l0 -170
-177 2 -178 3 -3 155 c-1 85 0 160 2 167 4 10 47 13 181 13 l175 0 0 -170z"/>
</g>
</svg>
